<svg xmlns="http://www.w3.org/2000/svg" width="1200" height="630" viewBox="0 0 1200 630">
  <rect width="1200" height="630" fill="#f6f0e4"/>
  <path d="M0 90h1200M0 180h1200M0 270h1200M0 360h1200M0 450h1200M0 540h1200M120 0v630M240 0v630M360 0v630M480 0v630M600 0v630M720 0v630M840 0v630M960 0v630M1080 0v630" stroke="#15120d" stroke-opacity=".08"/>
  <circle cx="102" cy="104" r="42" fill="#c8ff3d" stroke="#15120d" stroke-width="4"/>
  <text x="102" y="118" text-anchor="middle" font-family="Georgia, serif" font-size="44" font-weight="700" fill="#15120d">hi</text>
  <text x="92" y="250" font-family="Georgia, serif" font-size="104" fill="#15120d">Hi Series</text>
  <text x="96" y="326" font-family="Arial, sans-serif" font-size="34" fill="#6d6559">AI tools made for builders and creators.</text>
  <rect x="786" y="156" width="296" height="132" rx="8" fill="#dfe9ff" stroke="#15120d" stroke-width="3"/>
  <text x="822" y="226" font-family="Georgia, serif" font-size="42" fill="#15120d">HI API</text>
  <rect x="716" y="324" width="374" height="144" rx="8" fill="#ffe0cf" stroke="#15120d" stroke-width="3"/>
  <text x="752" y="394" font-family="Georgia, serif" font-size="42" fill="#15120d">Hi AI Image Studio</text>
</svg>
